PathFileType	4	(X/Y/Z)	Patient4_TMGait_0pt5_02_left_14.trc.trc
DataRate	CameraRate	NumFrames	NumMarkers	Units	OrigDataRate	OrigDataStartFrame	OrigNumFrames
76.086956521739	76.086956521739	5	33	mm	76.086956521739	53	       141
Frame#	Time	Sacral			L.Shoulder			Chest			R.Shoulder			Neck			R.ASIS			L.ASIS			R.Thigh.Superior			R.Thigh.Lateral			R.Thigh.Inferior			R.Patella			L.Thigh.Superior			L.Thigh.Lateral			L.Thigh.Inferior			L.Patella			L.Shank.Superior			L.Shank.Lateral			L.Shank.Inferior			R.Shank.Superior			R.Shank.Lateral			R.Shank.Inferior			R.Heel			R.Midfoot.Superior			R.Midfoot.Lateral			R.Toe			L.Heel			L.Midfoot.Lateral			L.Midfoot.Superior			L.Toe			L.Elbow			L.Wrist			R.Elbow			R.Wrist			
		X1	Y1	Z1	X2	Y2	Z2	X3	Y3	Z3	X4	Y4	Z4	X5	Y5	Z5	X6	Y6	Z6	X7	Y7	Z7	X8	Y8	Z8	X9	Y9	Z9	X10	Y10	Z10	X11	Y11	Z11	X12	Y12	Z12	X13	Y13	Z13	X14	Y14	Z14	X15	Y15	Z15	X16	Y16	Z16	X17	Y17	Z17	X18	Y18	Z18	X19	Y19	Z19	X20	Y20	Z20	X21	Y21	Z21	X22	Y22	Z22	X23	Y23	Z23	X24	Y24	Z24	X25	Y25	Z25	X26	Y26	Z26	X27	Y27	Z27	X28	Y28	Z28	X29	Y29	Z29	X30	Y30	Z30	X31	Y31	Z31	X32	Y32	Z32	X33	Y33	Z33	

53	18.303428571429	609.627359911902	1012.329659384613	458.979516208062	802.709989821687	1435.441615999100	282.282875509683	897.021853404261	1361.965718014312	447.505232420004	808.672536793046	1436.973836290394	619.867731538939	796.783247984255	1497.148813656111	433.151960859376	830.161772149621	944.299561286602	584.715811954680	829.294446652495	958.984476229619	309.561527366504	898.455311612127	760.202686320959	564.866944037999	839.896952467276	644.366695890427	633.986643124810	929.986851844207	593.963277603537	561.610179748375	933.314127047976	479.302684649322	584.777853654645	876.394377987458	751.980049214637	339.139115307704	790.006074642803	635.539684932950	283.365650077945	875.544217002750	559.163109556310	347.439286522475	877.034231878049	487.874746977548	358.818964344054	847.673164272527	415.667945970786	352.661559372112	757.161901215366	303.151647774482	300.963030077672	800.539116715482	192.175097204447	375.813826161248	849.875131240233	413.177116665426	587.028348679288	723.778493272020	386.649903549080	644.010154552756	697.986051614186	281.157069218996	592.873772458961	491.873280859000	247.440619827640	562.034737562626	650.657110366283	164.209231954310	600.538870871698	540.353671415385	175.224186354630	631.831250662389	699.371790394250	42.066887497249	621.078753438311	665.050179183948	38.962878077017	415.874830592885	741.370162315974	35.574761056475	337.616107565807	824.736680874423	95.484898569798	366.389101524488	953.417741122145	40.536813166766	342.245164712142	808.185140032030	1086.568450757364	145.345843490098	977.944711247432	886.994139478389	138.935040559660	733.675719358804	1095.373325347833	729.759851778359	766.205916299297	835.049563771160	735.237864138338	
54	18.316571428571	608.101814942974	1013.023400906963	457.981130735276	803.731526800201	1435.590962930901	281.603909823477	896.440719204027	1362.252814084693	447.764521587772	806.777027067522	1437.772912669769	619.199867329902	796.835901393360	1497.583005007106	432.308390407011	828.396886752683	945.131619558756	584.533347642026	828.716394371308	959.729000148232	309.275268941765	900.229780743962	764.423893628705	563.944853019524	845.119667252173	647.509494014213	633.754078105515	936.154703887840	599.048726730367	561.080104532353	942.297059537053	484.076984267644	584.374767131275	873.530871692692	751.318982232185	338.770984348476	785.888309874745	635.783885283513	283.100177277053	870.428542993656	558.570125587308	347.329400205477	871.098485402709	487.490621826099	358.858847257176	841.742265507869	415.602704517347	352.514252508997	751.021384228700	303.284018524696	300.721977678635	794.162853220193	192.225332028236	375.685253449565	859.265007063756	416.909054066615	586.868353203537	733.225240241153	389.739806306136	643.772070144924	708.002967298413	284.062661315587	592.856696189647	502.186674799508	248.875439941778	561.924251108375	661.484961697858	166.943796877448	600.704286503076	551.182941225407	177.332503219705	632.070111006689	710.912906893557	44.761488317311	621.778357246633	658.388928306940	39.043669837441	415.752434851359	734.751642317204	35.572719106492	337.532633173425	818.147302071421	95.494586653909	366.258337275942	946.788907011145	40.497318435198	342.175656156003	815.903774908224	1087.762331112384	143.201420217305	993.236576248045	894.941613275755	136.960944602863	720.685698601566	1099.096942833784	728.496848600239	743.048412295630	837.835085357314	733.670035762212	
55	18.329714285714	606.557874368674	1013.807566890766	457.091577783988	804.741420763858	1435.810084775955	281.104757474938	895.834129657451	1362.616341800918	448.184057400714	804.849695258178	1438.664278624838	618.624185354168	796.802863783522	1498.062501127503	431.635171120278	826.596972487012	946.050537635027	584.481974816411	828.090603536954	960.456876239823	309.155038762830	901.539576054157	768.612761844017	563.183836562453	849.716942912863	650.753693093306	633.656463409452	941.563335019354	604.166313127245	560.686293916929	950.520866717302	489.074551426946	584.122829764214	870.589273355284	750.657697052846	338.728842668254	781.716238538627	636.058511215875	282.998453684169	865.142692928865	557.990487124139	347.455706970358	864.947969303831	487.135503507260	359.107862843442	835.652968605541	415.585389316031	352.510353198640	744.785023136239	303.439636522016	300.566443799110	787.733531158368	192.308741266835	375.632794220031	868.256462272454	420.619052053370	586.863414811666	742.503958551103	391.999040792306	643.746379976178	718.512020683211	285.975777734685	593.038898151809	513.155270661840	247.820141074638	562.118802281230	673.580882136005	168.406209875867	600.991778661938	563.270757910796	177.356392910265	632.570505923458	724.695106412361	46.949862436547	622.548576033602	651.714053375138	39.114170495336	415.640254961151	728.128592028872	35.567229835761	337.461858785686	811.552995055450	95.514215326547	366.146533680306	940.153557936185	40.475136617567	342.121798547634	823.298648775953	1089.119486976645	141.453505052801	1007.897636808073	903.304257976731	135.485902180505	707.838082252886	1103.281109564792	727.241595342050	720.915805965496	841.543913753669	732.184319977036	
56	18.342857142857	605.005950569829	1014.643189789550	456.288780479559	805.748137965292	1436.064412280889	280.774735056924	895.211454779371	1363.019505328434	448.753014000691	802.906117223509	1439.610360892886	618.139485639140	796.689638108849	1498.555876422151	431.119530532276	824.751097558562	947.019626791531	584.578159005172	827.387368224512	961.109891413557	309.229524353895	902.405712083696	772.682370907072	562.599835885740	853.705836038763	654.001157503087	633.709651393916	946.209352997687	609.181039050169	560.430414472768	957.936652866101	494.174884796241	584.040847799228	867.587101621303	749.976836498497	339.002474337820	777.504534686975	636.351437681945	283.034554461594	859.695643722616	557.411564720240	347.789028802590	858.595155856880	486.800948045532	359.531616847221	829.414945095662	415.600321865658	352.626752835205	738.462073932035	303.600170992902	300.481803626924	781.252348775252	192.412301970079	375.650280632970	876.811440737269	424.201188491022	587.029040989044	751.608884715218	393.336963853291	643.970993306803	729.488182102826	286.832221875543	593.450491848710	524.808590619658	244.336551918821	562.681535614148	686.891587593120	168.553248625833	601.459160661678	576.579254322306	175.323893743270	633.385006908215	740.569614653059	48.446816032707	623.430733640513	645.028870827439	39.166716721146	415.541511503441	721.500298103576	35.555375890114	337.403402349738	804.951476826254	95.540936855576	366.055828295948	933.512366515272	40.473623590934	342.084038964420	830.323238718384	1090.585394535275	140.077617977009	1021.883041764271	912.016792000164	134.497948679026	695.316502902617	1107.825773741345	725.993674303557	699.908894623334	845.956273309554	730.813838700594	
57	18.356000000000	603.458660233997	1015.484473469486	455.558377027238	806.755641653804	1436.312881441827	280.601262923539	894.578919310473	1363.421395702022	449.460642327223	800.960519365990	1440.569857034004	617.749937128035	796.505891310555	1499.028285394360	430.747017778365	822.850568160743	947.993065707245	584.835201444504	826.586492178452	961.639087107749	309.520097736923	902.850374689849	776.539245389105	562.209328822388	857.093434629859	657.148387986178	633.924399650650	950.083702453230	613.952628000131	560.313639228596	964.488064678262	499.253148151267	584.140965740673	864.538152881503	749.257259929126	339.573613244842	773.265827126895	636.648313117766	283.178901964172	854.099565177234	556.820700163907	348.294475641414	852.059439304368	486.478250527654	360.090294745140	823.041078035605	415.631495743547	352.837969044755	732.062588153863	303.748401865995	300.452475107440	774.720773601604	192.522408758963	375.728651349290	884.886044007248	427.555833617897	587.376618956378	760.538003829848	393.689409693777	644.472180733359	740.908372636322	286.607748251233	594.113227443839	537.205651701016	238.533048627828	563.653896679261	701.362854040239	167.407861168598	602.158497386897	591.086925890202	171.327088494025	634.551589405950	758.372444830316	49.168263861262	624.471384176874	638.337626516254	39.194773291133	415.459244979277	714.865996339346	35.534754379943	337.356818153364	798.340116521870	95.571264446910	365.988023271189	926.865879012316	40.495458762055	342.062193445452	836.947821520607	1092.096013140927	139.045298394014	1035.157415816416	920.999336128701	133.977256938923	683.297388246245	1112.602814020898	724.757022777717	680.120394429732	850.849032136605	729.575589443279	
